<?xml version="1.0" standalone="no"?>
<!DOCTYPE svg PUBLIC "-//W3C//DTD SVG 20010904//EN"
 "http://www.w3.org/TR/2001/REC-SVG-20010904/DTD/svg10.dtd">
<svg version="1.0" xmlns="http://www.w3.org/2000/svg"
 width="260.000000pt" height="260.000000pt" viewBox="0 0 260.000000 260.000000"
 preserveAspectRatio="xMidYMid meet">
<metadata>
Created by potrace 1.11, written by Peter Selinger 2001-2013
</metadata>
<g transform="translate(0.000000,260.000000) scale(0.100000,-0.100000)"
fill="#000000" stroke="none">
<path d="M430 2176 c0 -8 -5 -18 -12 -22 -7 -4 -8 -3 -4 4 4 7 3 12 -3 12 -5
0 -13 -5 -16 -11 -4 -6 -14 -8 -22 -5 -8 3 -11 1 -8 -4 3 -6 -2 -13 -12 -17
-10 -3 -22 -13 -26 -20 -5 -7 -13 -10 -19 -7 -7 4 -8 2 -4 -5 4 -6 0 -14 -8
-17 -9 -3 -13 -10 -10 -15 3 -5 -2 -9 -10 -9 -10 0 -13 -6 -10 -15 4 -8 1 -15
-5 -15 -5 0 -15 -10 -22 -21 -9 -17 -8 -20 3 -14 10 6 10 5 1 -5 -6 -7 -9 -19
-6 -28 5 -11 2 -13 -8 -7 -11 6 -12 5 -2 -5 10 -11 9 -18 -5 -34 -12 -14 -13
-17 -2 -11 13 8 13 7 1 -8 -8 -10 -11 -20 -8 -23 3 -4 -1 -13 -9 -22 -13 -12
-13 -16 -2 -23 10 -7 10 -9 1 -9 -8 0 -13 -13 -13 -30 0 -17 -5 -30 -12 -30
-10 0 -10 -2 0 -9 11 -6 10 -10 -3 -15 -13 -5 -15 -9 -6 -20 9 -11 8 -18 -4
-30 -9 -9 -12 -16 -7 -16 5 0 9 -7 9 -15 0 -8 -5 -11 -10 -8 -6 4 -8 0 -4 -10
4 -10 1 -17 -6 -17 -8 0 -6 -4 3 -10 10 -6 11 -10 2 -10 -6 0 -11 -3 -11 -7 4
-24 -2 -43 -12 -38 -6 4 -5 -3 3 -15 11 -18 11 -22 -5 -31 -15 -9 -16 -13 -5
-27 11 -13 11 -14 -1 -7 -11 6 -13 2 -9 -19 4 -19 1 -26 -11 -26 -11 0 -12 -3
-4 -8 8 -5 9 -13 3 -22 -13 -21 -12 -33 2 -24 7 4 8 3 4 -4 -4 -7 -14 -12 -22
-12 -8 0 -12 -5 -9 -10 4 -6 12 -7 18 -3 7 3 4 -3 -6 -14 -14 -16 -15 -22 -5
-26 11 -4 11 -6 0 -6 -7 -1 -10 -5 -7 -11 3 -5 1 -10 -5 -10 -6 0 -8 -4 -5
-10 3 -5 1 -19 -6 -31 -6 -12 -7 -19 -2 -16 5 4 10 0 10 -8 0 -8 -5 -13 -11
-12 -6 1 -9 -12 -7 -32 2 -25 0 -31 -11 -26 -7 5 -10 5 -6 0 4 -4 2 -15 -5
-23 -9 -13 -9 -14 0 -8 7 4 13 2 13 -3 0 -6 -5 -11 -10 -11 -7 0 -7 -7 0 -20
8 -16 8 -20 -2 -18 -7 2 -12 -3 -11 -9 2 -7 -2 -13 -7 -13 -6 0 -10 -4 -10
-10 0 -5 8 -7 18 -4 15 5 15 4 1 -5 -43 -28 0 -129 47 -110 15 5 24 4 28 -4 3
-8 5 -8 5 2 1 11 4 11 16 1 8 -7 15 -9 15 -4 0 5 22 9 49 9 35 0 47 -4 44 -12
-3 -7 -1 -13 4 -13 5 0 9 -12 8 -27 0 -16 4 -31 10 -35 6 -5 5 -8 -3 -8 -10 0
-10 -3 1 -15 9 -8 14 -23 13 -32 -2 -10 4 -24 13 -31 13 -11 13 -12 1 -7 -10
4 -10 2 2 -8 14 -11 15 -16 5 -26 -9 -10 -8 -11 4 -6 10 4 20 1 25 -6 4 -8 3
-10 -4 -5 -18 11 -14 -5 5 -23 30 -27 59 -65 44 -56 -10 5 -12 4 -7 -3 4 -7
14 -12 22 -12 8 0 12 -4 9 -10 -3 -5 1 -10 9 -10 8 0 20 -9 26 -20 6 -11 17
-20 25 -20 8 0 15 -3 15 -7 0 -5 12 -17 27 -27 14 -11 23 -14 19 -8 -11 18 26
2 45 -20 19 -20 34 -24 23 -6 -4 7 3 4 16 -7 13 -11 20 -14 16 -8 -4 7 -2 13
3 13 6 0 11 -8 11 -17 0 -15 2 -16 10 -3 6 10 10 11 10 3 0 -7 7 -13 16 -13 9
0 12 5 8 13 -6 9 -4 8 8 -1 19 -15 69 -19 88 -7 8 5 11 4 7 -3 -8 -12 31 -4
50 10 7 6 14 4 19 -3 5 -8 3 -9 -6 -4 -9 5 -11 4 -6 -3 5 -9 12 -9 26 0 10 7
16 16 14 20 -3 4 7 3 21 -2 14 -5 24 -6 21 -1 -7 11 22 23 35 15 5 -3 9 -1 9
5 0 6 10 15 21 22 16 8 20 8 14 -1 -5 -8 -1 -8 13 1 12 7 20 15 20 18 -2 19 4
24 12 11 7 -11 10 -11 10 -2 0 7 5 10 12 6 7 -4 8 -3 4 5 -4 6 0 14 11 18 21
8 49 34 46 42 -2 3 3 6 10 6 6 1 11 6 10 13 -2 7 2 12 7 12 6 0 10 7 10 15 0
8 5 14 12 12 7 -1 13 4 14 11 1 6 2 17 3 23 0 5 6 7 11 4 6 -4 10 -3 9 2 -4
22 2 44 10 39 5 -4 8 5 7 19 -2 13 0 22 4 20 5 -3 11 2 14 11 4 10 2 13 -7 9
-6 -4 -3 1 7 9 15 12 16 16 5 16 -8 0 -10 3 -4 8 6 4 10 14 10 22 0 8 7 14 15
12 10 -1 9 2 -4 13 -11 8 -14 15 -7 15 7 0 9 5 6 10 -3 6 -1 10 5 10 6 0 9 4
6 9 -8 12 27 8 36 -4 5 -6 8 -4 8 5 0 13 1 13 10 0 7 -11 10 -11 10 -2 0 20
36 -3 43 -28 3 -11 1 -18 -4 -14 -5 3 -9 0 -9 -5 0 -6 5 -11 11 -11 5 0 8 -4
4 -9 -3 -5 -1 -13 5 -16 6 -4 8 -16 4 -27 -4 -15 -3 -18 6 -13 9 5 10 2 6 -13
-4 -12 -1 -26 9 -36 9 -9 13 -16 9 -16 -4 0 1 -7 12 -16 10 -8 13 -13 7 -9 -7
3 -13 2 -13 -3 0 -6 6 -12 14 -15 8 -3 25 -24 38 -46 13 -23 27 -41 31 -41 14
0 36 -27 29 -35 -4 -5 2 -5 12 -1 16 5 17 4 6 -9 -11 -13 -10 -14 4 -9 9 3 16
1 16 -4 0 -12 55 -42 77 -42 7 0 13 -4 13 -10 0 -5 9 -10 20 -10 11 0 20 -4
20 -10 0 -5 10 -10 23 -10 13 0 29 -6 36 -12 11 -10 14 -10 18 -1 3 10 9 9 20
-3 13 -13 17 -13 24 -2 7 10 9 10 9 -2 0 -12 2 -12 9 -1 5 8 11 9 15 3 6 -10
38 -8 80 4 12 4 16 2 12 -5 -4 -6 -3 -11 2 -11 6 0 12 6 15 13 3 8 21 14 41
15 20 1 44 8 52 17 17 17 28 20 19 5 -3 -5 0 -7 9 -4 8 3 17 12 20 21 4 9 13
13 22 9 8 -3 12 -2 9 4 -3 6 1 10 9 10 9 0 16 5 16 10 0 6 6 10 13 10 17 0 47
36 39 46 -4 5 2 2 12 -6 13 -10 17 -10 12 -2 -4 6 -2 12 3 12 6 0 10 3 10 8
-3 18 2 32 11 32 5 0 7 -8 4 -17 -3 -10 2 -6 11 10 9 15 13 33 9 39 -4 6 -3 8
3 5 6 -4 16 6 22 23 5 17 15 30 20 30 6 0 11 8 11 18 0 10 3 22 7 26 4 3 8 17
10 29 2 12 6 29 10 37 4 8 8 29 10 45 1 17 4 35 5 41 1 10 56 10 101 0 9 -2
17 1 17 7 0 7 5 5 10 -3 5 -8 10 -10 10 -5 0 6 12 10 28 9 18 -1 31 6 40 20
10 16 12 16 8 3 -3 -11 -2 -15 4 -12 15 9 12 75 -2 75 -8 0 -9 3 -3 8 13 9 18
35 5 27 -5 -3 -10 -3 -11 2 -1 4 -2 20 -3 34 -2 14 -7 32 -12 40 -13 22 -14
40 -1 32 7 -4 4 4 -5 19 -9 14 -14 35 -11 47 3 13 1 21 -7 21 -9 0 -9 4 1 17
10 11 10 14 2 9 -12 -6 -18 11 -14 37 0 4 -4 7 -9 7 -7 0 -7 7 1 21 8 15 8 19
0 15 -6 -4 -11 0 -11 11 0 11 -6 25 -12 32 -11 11 -10 12 2 6 13 -8 13 -6 2 7
-9 12 -10 18 -2 23 8 5 7 12 -3 23 -8 10 -13 27 -12 40 1 12 -2 22 -6 22 -4 0
-10 7 -13 16 -4 10 -2 13 7 8 9 -6 9 -5 0 8 -7 8 -10 18 -6 21 3 4 1 7 -5 7
-7 0 -12 5 -12 11 0 5 4 8 9 5 11 -7 8 21 -4 31 -4 4 -5 2 0 -6 5 -9 4 -12 -2
-8 -6 4 -9 18 -8 32 2 14 -2 25 -8 25 -8 0 -8 3 0 11 14 14 5 42 -10 32 -6 -4
-8 0 -4 10 3 10 3 17 -2 17 -5 0 -7 11 -6 25 2 14 -1 28 -7 31 -6 4 -5 10 3
15 12 8 11 12 -3 23 -14 10 -15 15 -5 26 9 10 9 11 -1 6 -12 -7 -16 9 -13 47
1 9 -2 17 -8 17 -6 0 -9 14 -7 30 2 22 -1 30 -13 30 -13 0 -13 2 -2 9 11 7 11
9 0 14 -11 4 -11 6 -1 6 10 1 10 4 0 15 -7 8 -17 11 -22 9 -5 -3 -6 0 -4 8 8
20 -10 49 -30 49 -15 0 -15 2 -2 10 13 8 13 10 -2 10 -9 0 -20 5 -24 12 -5 7
-2 8 7 3 8 -5 11 -4 6 1 -5 5 -12 9 -15 10 -15 1 -62 28 -62 35 0 4 -11 6 -25
4 -14 -1 -28 2 -32 8 -3 6 -1 7 5 3 7 -4 12 -2 12 3 0 14 -13 14 -28 -1 -9 -9
-12 -9 -12 1 0 11 -3 11 -17 0 -9 -8 -14 -9 -10 -3 4 8 -3 11 -21 10 -36 -2
-72 -23 -72 -42 0 -8 -4 -13 -8 -10 -4 2 -8 -4 -8 -14 0 -10 5 -16 10 -13 5 4
7 -1 3 -10 -4 -10 -2 -16 6 -14 7 1 11 -7 9 -18 -2 -15 -1 -17 6 -6 6 7 14 11
20 7 6 -3 14 -2 17 4 4 7 11 7 18 2 7 -5 20 -8 30 -7 9 2 17 -1 17 -6 0 -5 8
-9 17 -9 9 0 25 -8 36 -17 12 -11 17 -12 12 -4 -6 10 -4 12 4 6 7 -4 11 -15 8
-25 -4 -14 0 -17 14 -15 11 2 17 0 14 -5 -3 -5 -1 -11 5 -15 6 -4 8 -11 5 -16
-4 -5 2 -9 12 -9 15 0 16 -2 3 -11 -12 -8 -12 -12 -2 -16 10 -4 10 -8 1 -19
-9 -11 -9 -14 0 -14 7 0 9 -5 6 -10 -4 -6 -1 -17 5 -25 7 -8 9 -15 4 -15 -5 0
-2 -5 6 -10 13 -9 13 -10 0 -10 -11 0 -12 -2 -3 -8 7 -4 13 -24 15 -45 1 -20
5 -37 9 -37 3 0 5 -10 5 -22 -1 -13 5 -32 13 -42 14 -17 14 -18 1 -11 -9 5 -7
-1 5 -15 11 -13 15 -20 8 -17 -6 4 -14 3 -18 -3 -3 -5 1 -10 10 -10 9 0 14 -4
10 -10 -3 -5 0 -19 7 -30 11 -17 11 -22 -2 -30 -13 -8 -12 -10 3 -10 11 0 15
-5 11 -11 -3 -6 0 -15 7 -20 10 -6 11 -9 2 -9 -7 0 -13 -5 -13 -11 0 -5 5 -7
11 -3 8 4 9 -1 4 -16 -5 -14 -3 -20 3 -16 6 4 8 -2 4 -16 -3 -12 -1 -19 5 -15
12 7 11 -23 -2 -42 -5 -9 -4 -12 3 -7 6 3 13 2 17 -4 3 -5 1 -10 -6 -10 -9 0
-9 -4 1 -15 6 -8 9 -19 5 -25 -3 -5 -1 -10 5 -10 7 0 10 -7 6 -15 -3 -8 0 -15
6 -15 7 0 6 -6 -2 -16 -11 -12 -11 -15 -1 -12 9 2 15 -12 18 -42 2 -25 10 -48
16 -52 8 -5 7 -8 -3 -8 -10 0 -11 -3 -4 -8 6 -4 10 -17 9 -29 -1 -12 3 -19 8
-16 6 4 8 -3 5 -15 -4 -12 -2 -20 2 -17 5 3 12 0 16 -6 4 -8 3 -9 -5 -5 -6 4
-14 0 -17 -8 -3 -9 -10 -16 -16 -16 -5 0 -6 6 -2 13 5 8 2 8 -9 -2 -11 -8 -17
-9 -17 -2 0 7 -8 8 -27 0 -15 -6 -24 -7 -20 -3 4 4 2 13 -5 21 -6 7 -8 16 -5
20 4 3 2 12 -5 20 -9 11 -7 12 8 7 15 -5 14 -3 -3 10 -13 10 -23 26 -23 37 0
10 -6 19 -12 19 -10 0 -10 2 0 9 11 6 10 10 -3 15 -10 4 -15 12 -11 22 3 8 2
13 -2 11 -4 -3 -13 1 -20 9 -7 8 -10 14 -7 14 4 0 0 6 -7 14 -7 7 -20 23 -28
35 -8 11 -19 21 -24 21 -5 0 -19 11 -32 26 -13 14 -24 22 -24 19 0 -3 -6 0
-14 7 -8 7 -11 17 -8 22 3 5 0 6 -7 2 -7 -5 -20 -1 -29 6 -29 25 -46 33 -38
17 4 -8 0 -5 -8 5 -9 11 -16 14 -16 7 0 -7 -5 -9 -10 -6 -6 4 -8 10 -5 14 2 5
-6 8 -18 7 -12 -1 -25 3 -29 9 -5 6 -8 5 -8 -3 0 -7 -5 -10 -10 -7 -6 4 -8 12
-4 18 3 7 -2 3 -10 -7 -14 -17 -16 -18 -16 -3 0 9 -5 17 -11 17 -5 0 -7 -5 -3
-11 5 -8 1 -8 -13 0 -14 7 -24 7 -33 -2 -9 -8 -11 -8 -7 -1 4 7 0 15 -8 18 -9
3 -18 -1 -22 -9 -4 -12 -9 -13 -19 -4 -11 9 -14 8 -14 -1 0 -10 -3 -10 -15 0
-12 10 -16 9 -21 -5 -5 -12 -9 -13 -14 -4 -6 8 -11 5 -20 -10 -9 -17 -14 -20
-25 -11 -9 8 -15 8 -20 0 -3 -5 -15 -10 -26 -10 -10 0 -19 -5 -19 -11 0 -6 -7
-8 -16 -5 -8 3 -12 2 -9 -4 6 -9 -8 -14 -27 -11 -5 0 -8 -6 -8 -15 0 -8 -4
-12 -10 -9 -5 3 -10 1 -10 -4 0 -6 -6 -10 -12 -8 -7 1 -12 -4 -10 -11 1 -8 -2
-11 -7 -8 -5 4 -12 2 -16 -4 -4 -6 -10 -8 -15 -5 -4 3 -6 -5 -2 -17 3 -14 2
-19 -6 -14 -7 4 -12 1 -12 -7 0 -19 -44 -59 -55 -50 -5 5 -3 0 4 -9 12 -16 11
-18 -5 -18 -16 0 -17 -2 -4 -10 13 -8 13 -10 -2 -10 -12 0 -16 -6 -13 -21 3
-15 0 -19 -10 -15 -9 3 -12 0 -9 -8 3 -8 0 -17 -6 -21 -8 -5 -7 -11 2 -23 11
-13 11 -14 -1 -7 -11 6 -13 3 -9 -13 4 -12 1 -25 -4 -29 -7 -4 -8 -1 -3 7 5 9
4 11 -3 6 -7 -4 -12 -13 -12 -19 0 -8 -19 -12 -54 -12 -47 0 -53 2 -50 18 2
13 -1 17 -11 13 -10 -3 -12 0 -8 11 5 11 3 14 -6 8 -10 -6 -11 -3 -3 11 11 21
5 47 -9 39 -5 -4 -6 1 -3 9 3 9 1 16 -5 16 -6 0 -11 9 -11 21 0 13 -4 18 -12
13 -8 -5 -8 -1 2 12 8 10 11 16 6 12 -12 -10 -39 20 -30 33 4 8 3 9 -4 5 -7
-4 -12 -1 -12 9 0 8 -11 21 -25 27 -14 6 -25 20 -25 30 0 11 -4 17 -9 13 -6
-3 -14 3 -20 12 -6 10 -11 14 -11 8 0 -5 -10 1 -21 15 -11 14 -18 18 -14 10 4
-8 -1 -6 -10 5 -9 11 -18 19 -20 18 -12 -4 -44 10 -40 18 3 4 -4 6 -15 4 -11
-2 -20 1 -20 7 0 6 -3 8 -7 5 -3 -4 -17 0 -31 9 -17 11 -22 12 -17 3 5 -8 -5
-3 -21 11 -15 14 -23 18 -16 8 9 -11 10 -18 2 -23 -5 -3 -10 -1 -10 5 0 6 -4
9 -9 6 -5 -4 -12 0 -14 6 -4 9 -6 9 -6 -1 -1 -11 -5 -10 -17 5 -8 10 -12 13
-8 5 5 -11 2 -13 -14 -9 -12 4 -20 2 -17 -2 3 -5 0 -12 -6 -16 -7 -4 -9 -3 -6
3 4 6 0 16 -7 22 -10 8 -16 9 -21 1 -3 -6 -11 -7 -17 -4 -6 4 -8 2 -5 -3 4 -6
0 -13 -8 -17 -8 -3 -17 -1 -21 5 -4 6 -13 4 -25 -7 -18 -16 -19 -16 -20 2 0
17 -2 16 -11 -3 -6 -13 -15 -23 -20 -23 -5 0 -6 4 -3 10 3 6 -1 7 -9 4 -9 -3
-13 -10 -10 -16 3 -5 -2 -8 -12 -6 -12 2 -18 -2 -16 -11 3 -12 0 -12 -12 -2
-12 10 -17 9 -26 -9 -6 -11 -15 -18 -19 -15 -5 3 -12 -2 -15 -11 -3 -8 -11
-12 -17 -8 -7 4 -10 3 -7 -2 3 -5 -4 -18 -15 -29 -11 -11 -16 -13 -12 -5 5 8
-3 4 -17 -10 -13 -14 -23 -28 -21 -32 2 -5 -1 -8 -7 -8 -6 0 -8 -4 -5 -10 3
-5 -2 -10 -11 -10 -10 0 -14 -3 -11 -7 4 -3 -1 -12 -11 -20 -10 -9 -11 -12 -2
-7 11 6 10 2 -2 -13 -10 -11 -18 -25 -18 -32 0 -7 -4 -10 -9 -6 -6 3 -8 -6 -5
-21 4 -22 2 -25 -12 -20 -15 6 -15 4 -3 -11 12 -15 12 -16 -4 -10 -13 5 -16 3
-10 -5 4 -7 8 -21 8 -30 1 -13 -2 -15 -11 -7 -9 7 -12 5 -10 -8 1 -13 -8 -17
-36 -18 -46 -2 -64 8 -52 26 5 8 7 22 6 32 -2 9 1 17 6 17 6 0 8 9 5 20 -3 11
-1 20 5 20 6 0 8 9 5 20 -3 11 -1 20 4 20 6 0 8 12 6 28 -3 19 -2 23 5 13 7
-9 9 2 8 37 0 29 3 50 9 49 6 -1 10 11 9 26 0 20 4 26 14 22 12 -4 13 -3 2 10
-10 12 -10 18 0 30 9 11 10 15 1 15 -8 0 -7 6 3 16 18 17 21 28 6 19 -6 -3 -7
1 -4 9 3 9 11 13 18 9 6 -4 6 0 -2 9 -10 13 -10 18 -1 24 8 5 9 3 4 -6 -5 -9
-4 -11 4 -6 8 5 9 12 2 20 -7 9 -6 19 5 35 12 16 13 25 4 36 -8 9 -8 15 0 20
6 3 7 11 4 17 -4 6 -2 8 4 4 6 -3 13 -2 17 4 3 5 2 10 -3 10 -5 0 -9 7 -9 15
0 10 6 14 15 10 12 -4 12 -3 3 9 -10 11 -9 16 5 24 11 6 13 11 5 16 -6 4 -11
2 -11 -5 0 -7 -2 -10 -5 -7 -8 8 6 39 14 33 4 -2 8 2 8 10 0 8 -5 11 -11 8 -6
-4 -5 1 3 10 7 9 11 28 9 42 -3 13 -1 22 3 19 5 -3 9 0 9 6 0 6 5 8 11 4 8 -4
8 0 0 15 -10 18 -9 21 6 22 16 0 16 1 -2 9 -11 5 -14 9 -7 9 7 1 10 6 7 11 -3
6 0 10 7 10 9 0 9 3 -2 10 -10 6 -11 10 -2 10 6 0 12 5 12 11 0 5 -6 7 -12 4
-7 -4 -5 0 6 9 11 9 16 22 12 31 -4 12 0 19 14 22 11 3 17 9 14 14 -3 5 0 9 6
9 6 0 18 7 27 16 9 8 22 13 30 10 8 -3 11 -2 8 3 -3 5 -1 12 5 16 5 3 10 1 10
-6 0 -8 4 -8 16 2 13 10 17 10 24 -1 6 -10 9 -8 13 6 4 16 5 16 6 2 1 -15 5
-15 32 -6 18 6 28 16 25 23 -2 8 1 16 9 19 7 2 12 11 11 18 -3 20 -25 55 -26
40 0 -10 -3 -10 -14 0 -10 9 -11 15 -2 20 7 5 5 8 -6 8 -9 0 -19 -6 -21 -12
-4 -10 -6 -10 -6 0 -1 6 -7 12 -15 12 -8 0 -17 -6 -19 -12 -4 -10 -6 -10 -6 0
-1 8 -6 10 -13 5 -19 -11 -39 -13 -32 -2 3 5 0 9 -5 9 -6 0 -11 -6 -11 -14z
m1465 -836 c-4 -6 5 -10 19 -10 14 0 26 -6 26 -12 0 -9 4 -8 10 2 9 13 10 13
10 0 0 -13 1 -13 10 0 8 12 10 12 10 1 0 -8 7 -11 20 -8 11 3 23 0 27 -5 3 -7
1 -8 -5 -4 -7 4 -12 5 -12 2 0 -3 10 -10 21 -17 17 -9 20 -8 14 3 -3 7 0 5 8
-4 8 -10 17 -15 20 -11 4 3 9 -2 13 -11 3 -9 10 -16 16 -16 15 0 40 -29 33
-40 -3 -5 0 -7 8 -4 8 3 20 -3 28 -13 13 -17 13 -17 -6 -3 -19 14 -19 14 -6
-2 7 -10 19 -18 26 -18 8 0 11 -8 8 -18 -2 -11 3 -24 14 -32 15 -12 16 -12 6
0 -7 8 -13 18 -13 24 0 5 6 1 14 -9 8 -11 12 -23 9 -28 -2 -4 1 -15 9 -24 11
-14 11 -16 -2 -9 -8 4 -6 0 4 -8 15 -12 16 -16 5 -16 -12 0 -12 -2 1 -10 8 -5
12 -10 7 -10 -4 0 0 -12 10 -27 17 -27 17 -27 0 -14 -16 12 -17 12 -10 -5 3
-10 11 -22 17 -26 7 -5 7 -8 -2 -8 -9 0 -11 -12 -8 -40 4 -30 1 -42 -12 -50
-9 -5 -12 -10 -6 -10 6 0 11 -7 11 -15 0 -8 -4 -12 -9 -9 -5 3 -6 -7 -4 -21 3
-15 3 -25 -1 -22 -8 9 -31 -17 -26 -30 3 -6 -4 -20 -15 -31 -11 -11 -17 -24
-14 -28 4 -4 -1 -4 -11 -1 -11 4 -16 3 -12 -3 8 -12 -44 -62 -57 -54 -4 3 -7
2 -6 -3 2 -4 -1 -9 -6 -10 -5 -1 -12 -7 -17 -15 -5 -7 -14 -13 -21 -13 -7 -1
-12 -7 -10 -15 2 -11 0 -11 -11 -1 -12 9 -16 8 -20 -3 -4 -10 -17 -14 -41 -12
-28 2 -33 0 -25 -10 9 -10 4 -11 -20 -4 -17 5 -33 5 -36 1 -6 -11 -87 -1 -104
13 -11 8 -13 8 -8 -1 5 -8 0 -9 -22 0 -17 6 -27 16 -23 21 3 6 -1 5 -9 -1 -13
-10 -20 -9 -37 7 -12 11 -26 20 -32 20 -5 0 -10 4 -10 10 0 5 -7 7 -15 3 -9
-3 -15 -2 -14 3 3 18 -1 37 -7 31 -8 -8 -34 18 -34 33 0 6 -3 9 -7 7 -5 -3
-14 1 -21 9 -9 10 -10 14 -1 14 7 0 2 8 -9 19 -12 10 -22 26 -22 35 0 10 -5
14 -11 10 -7 -4 -7 1 1 16 8 15 8 20 1 16 -6 -4 -11 -2 -11 3 0 21 -2 26 -13
40 -10 12 -9 13 2 7 9 -6 8 0 -4 17 -11 17 -13 27 -5 32 8 5 8 11 -1 21 -7 8
-7 14 -1 14 6 0 7 13 2 34 -5 25 -4 33 5 30 11 -5 13 0 16 50 1 14 10 34 21
45 10 12 14 21 8 21 -5 0 -2 9 7 19 9 11 21 17 27 14 6 -4 4 2 -4 13 -8 10
-11 16 -6 12 9 -7 72 52 68 64 -1 5 1 7 6 7 20 -3 32 2 26 13 -4 7 -3 8 4 4
13 -8 55 17 46 27 -4 4 3 5 15 2 15 -3 21 1 21 13 0 13 2 14 9 4 9 -15 12 -15
55 3 19 8 40 10 58 4 16 -4 26 -4 23 1 -3 4 1 11 7 13 19 8 20 8 13 -3z
m-1201 -12 c-4 -7 -3 -8 5 -4 18 11 82 15 75 5 -3 -5 2 -6 11 -3 8 4 23 0 32
-7 15 -12 16 -12 10 4 -5 15 -1 13 26 -6 17 -14 40 -23 50 -22 10 2 17 -3 18
-13 0 -10 3 -12 6 -5 3 9 11 7 25 -7 12 -11 25 -17 30 -14 4 3 8 -4 8 -16 0
-12 5 -18 10 -15 6 3 10 1 10 -5 0 -6 5 -8 10 -5 6 3 10 0 10 -9 0 -8 3 -16 8
-18 13 -6 62 -84 62 -99 0 -8 6 -23 14 -34 7 -11 12 -29 10 -40 -1 -10 2 -25
8 -32 8 -10 6 -13 -6 -13 -10 0 -14 -5 -11 -10 4 -6 10 -8 14 -6 4 3 7 -5 7
-17 -1 -12 -7 -26 -14 -30 -10 -7 -10 -12 -1 -23 9 -11 8 -18 -5 -33 -13 -14
-14 -21 -5 -26 8 -6 7 -11 -6 -18 -14 -8 -15 -11 -4 -18 11 -7 11 -9 -3 -9
-11 0 -16 -6 -13 -20 2 -13 -2 -20 -11 -20 -8 0 -22 -16 -30 -35 -9 -22 -19
-33 -26 -29 -7 4 -8 3 -4 -4 4 -6 -4 -16 -16 -23 -13 -7 -30 -20 -39 -30 -9
-10 -19 -16 -23 -12 -3 3 -6 1 -6 -6 0 -8 -6 -11 -16 -7 -10 4 -13 2 -8 -6 5
-8 2 -9 -10 -5 -10 4 -15 3 -11 -3 6 -9 -7 -13 -47 -13 -10 0 -15 -4 -11 -10
4 -6 0 -8 -10 -4 -10 4 -17 1 -18 -6 0 -7 -4 -3 -9 8 -7 16 -9 17 -9 3 -1 -14
-6 -15 -32 -8 -25 8 -29 7 -19 -5 9 -11 7 -12 -9 -8 -12 3 -19 9 -16 13 2 4
-6 5 -19 3 -13 -3 -27 0 -30 6 -4 6 -13 11 -19 11 -7 0 -6 -4 3 -10 9 -6 10
-10 3 -10 -6 0 -15 5 -18 11 -4 6 -13 8 -21 5 -8 -3 -14 1 -14 9 0 8 -9 15
-20 15 -11 0 -20 6 -20 13 0 8 -4 7 -10 -3 -8 -13 -10 -13 -10 2 0 9 -5 20
-12 24 -7 4 -8 3 -4 -4 4 -7 3 -12 -2 -12 -10 0 -26 29 -24 42 1 4 -5 5 -12 2
-14 -5 -43 32 -38 49 1 5 -1 6 -6 3 -4 -2 -14 -1 -22 5 -13 7 -13 9 0 9 12 1
12 2 -2 10 -9 6 -19 24 -23 40 -4 17 -11 28 -16 24 -5 -3 -9 0 -9 5 0 6 6 11
13 11 6 0 1 10 -13 21 -14 11 -19 17 -11 13 11 -5 13 -3 8 10 -4 10 -7 27 -7
37 0 13 -4 18 -12 13 -7 -4 -5 2 5 13 9 11 14 23 10 26 -11 11 -10 57 2 57 5
0 3 5 -5 10 -11 7 -11 10 -2 10 7 0 10 5 7 10 -3 6 0 10 7 10 9 0 9 3 -2 10
-14 9 -7 14 13 11 4 -1 3 8 -3 19 -6 11 -7 19 -1 18 5 -2 9 1 9 5 1 5 9 15 19
24 10 8 12 12 6 8 -7 -3 -13 -2 -13 3 0 6 7 12 15 16 8 3 14 9 13 14 -4 10 59
72 73 72 6 0 8 4 4 9 -5 9 32 27 48 23 4 -1 7 4 7 11 0 7 10 18 23 26 20 13
21 13 8 -2 -9 -12 -10 -17 -2 -17 6 0 14 6 17 14 3 9 12 12 21 9 12 -5 14 -3
8 8 -8 12 -6 12 8 0 10 -8 17 -9 17 -3 0 9 16 17 43 21 5 0 5 -4 1 -11z m196
-20 c0 -6 -6 -5 -15 2 -8 7 -15 14 -15 16 0 2 7 1 15 -2 8 -4 15 -11 15 -16z"/>
<path d="M2070 2061 c0 -6 4 -13 10 -16 6 -3 7 1 4 9 -7 18 -14 21 -14 7z"/>
<path d="M1449 1253 c-13 -16 -12 -17 4 -4 16 13 21 21 13 21 -2 0 -10 -8 -17
-17z"/>
</g>
</svg>
