<svg display="none" xmlns="http://www.w3.org/2000/svg">
                <symbol id="youtube" width="14.64" height="13.96" viewBox="0 0 14.64 13.96">
                  <path fill="#d22856" d="M1.775 13.78C.8 14.257 0 13.758 0 12.67V1.29C0 .202.8-.295 1.775.18l12.133 5.933c.975.478.975 1.258 0 1.736L1.775 13.78z"/>
                </symbol>


                <symbol id="twitter" width="17.5" height="14.663" viewBox="0 0 17.5 14.663">
<path fill="#d22856" fill-rule="evenodd" clip-rule="evenodd" d="M11.283.153c1.736-.485 3.074.263 3.685 1.15.694-.225 1.372-.47 2.072-.69-.004.84-.538 1.478-.883 1.727.704.166 1.343-.48 1.343-.48-.175.976-1.035 1.746-1.61 1.977-.24 6.592-3.273 10.956-10.383 10.823h-.46c-.422 0-4.29-.45-5.047-1.843 2.34.192 4.01-.412 4.835-1.15-.99-.293-2.76-.464-3.07-2.88.362.104.583.222 1.228.116C1.757 8.067.385 7.366.46 5.218c.295.32 1.1.523 1.382.46C1.117 5.445-.188 2.4.922.844c1.872 1.81 3.847 3.52 7.368 3.685.216-2.24 1.17-3.74 2.993-4.375z"/>                </symbol>

                <symbol id="facebook" width="8.673" height="18.944" viewBox="0 0 8.673 18.944">
<path fill="#d22856" d="M6.275 3.357h2.398V0H5.795C2.655.18 1.54 2.387 1.948 6.115H0v3.517h1.958v9.312h3.837V9.632h2.857V6.115H5.786c-.02-1.045-.036-2.406.49-2.758z"/>                </symbol>

<symbol id="logo" width="26.943"   height="34.09"   viewBox="0 0 26.943 34.09"> 
                <path fill="none"  d="M13.62.017L13.472 0 0 1.412v24.66l13.472 8.018 13.43-7.99.042-.026V1.412L13.62.017zm11.4 12.11L13.494 5.334V5.23l-.088.05-.088-.056v.11L1.924 12.117v-8.97l11.547-1.213L25.02 3.147v8.98zm-11.615-5.34L24.923 13.5l-4.48 2.64-7.092-4.22-.012 1.414 5.904 3.513-.86.507-5.03-2.992-.014 1.415 3.827 2.275-.782.523-3.032-1.787-.012 1.413 1.852 1.092-1.8 1.08-11.356-6.75 11.37-6.835zm-11.48 8.34l11.41 6.79.016 1.045-7.94-4.728-.015 1.416 7.98 4.796.016 1.076-7.97-4.74-.014 1.414 8.02 4.82.046.027 8.143-4.872v-1.267l-.01-.148v-3.76l3.414-2.037v10.02L13.47 31.85 1.925 24.98v-9.853z"
                /> </symbol>

                <symbol id="yes" width="30.375" height="21.688" viewBox="0 0 30.375 21.688">
                <path fill="#3dc644" d="M29.936.44c-.586-.587-1.535-.587-2.12 0L10.187 18.065 2.56 10.44c-.585-.587-1.534-.587-2.12 0s-.586 1.534 0 2.12l8.688 8.688c.293.293.677.44 1.06.44s.77-.147 1.062-.44L29.936 2.56c.585-.585.585-1.535 0-2.12z"/>
                </symbol>


                <symbol id="no" width="26.752" height="26.752" viewBox="0 0 26.752 26.752">
                <path fill="#f25b26" d="M15.497 13.376L26.312 2.562c.586-.585.586-1.535 0-2.12s-1.535-.587-2.12 0L13.375 11.254 2.562.44c-.586-.587-1.535-.587-2.12 0-.587.584-.587 1.534 0 2.12l10.813 10.815L.44 24.19c-.587.586-.587 1.535 0 2.12.292.294.676.44 1.06.44s.768-.146 1.06-.44l10.816-10.813L24.19 26.312c.293.293.677.44 1.06.44s.77-.147 1.062-.44c.586-.586.586-1.535 0-2.12L15.497 13.375z"/>
                </symbol>



              </svg>